<?xml version="1.0" encoding="utf-8" standalone="no"?>
<!DOCTYPE svg PUBLIC "-//W3C//DTD SVG 1.1//EN"
  "http://www.w3.org/Graphics/SVG/1.1/DTD/svg11.dtd">
<!-- Created with matplotlib (http://matplotlib.org/) -->
<svg height="345.6pt" version="1.1" viewBox="0 0 460.8 345.6" width="460.8pt" xmlns="http://www.w3.org/2000/svg" xmlns:xlink="http://www.w3.org/1999/xlink">
 <defs>
  <style type="text/css">
*{stroke-linecap:butt;stroke-linejoin:round;}
  </style>
 </defs>
 <g id="figure_1">
  <g id="patch_1">
   <path d="M 0 345.6 
L 460.8 345.6 
L 460.8 0 
L 0 0 
z
" style="fill:#ffffff;"/>
  </g>
  <g id="axes_1">
   <g id="patch_2">
    <path d="M 38.27 303.64 
L 447.48 303.64 
L 447.48 14.76 
L 38.27 14.76 
z
" style="fill:#ffffff;"/>
   </g>
   <g id="matplotlib.axis_1">
    <g id="xtick_1">
     <g id="line2d_1">
      <defs>
       <path d="M 0 0 
L 0 3.5 
" id="me44efd289c" style="stroke:#000000;stroke-width:0.8;"/>
      </defs>
      <g>
       <use style="stroke:#000000;stroke-width:0.8;" x="56.841985" xlink:href="#me44efd289c" y="303.64"/>
      </g>
     </g>
     <g id="text_1">
      <!-- 0 -->
      <defs>
       <path d="M 31.78125 66.40625 
Q 24.171875 66.40625 20.328125 58.90625 
Q 16.5 51.421875 16.5 36.375 
Q 16.5 21.390625 20.328125 13.890625 
Q 24.171875 6.390625 31.78125 6.390625 
Q 39.453125 6.390625 43.28125 13.890625 
Q 47.125 21.390625 47.125 36.375 
Q 47.125 51.421875 43.28125 58.90625 
Q 39.453125 66.40625 31.78125 66.40625 
z
M 31.78125 74.21875 
Q 44.046875 74.21875 50.515625 64.515625 
Q 56.984375 54.828125 56.984375 36.375 
Q 56.984375 17.96875 50.515625 8.265625 
Q 44.046875 -1.421875 31.78125 -1.421875 
Q 19.53125 -1.421875 13.0625 8.265625 
Q 6.59375 17.96875 6.59375 36.375 
Q 6.59375 54.828125 13.0625 64.515625 
Q 19.53125 74.21875 31.78125 74.21875 
z
" id="DejaVuSans-30"/>
      </defs>
      <g transform="translate(53.660735 318.238437)scale(0.1 -0.1)">
       <use xlink:href="#DejaVuSans-30"/>
      </g>
     </g>
    </g>
    <g id="xtick_2">
     <g id="line2d_2">
      <g>
       <use style="stroke:#000000;stroke-width:0.8;" x="113.7807" xlink:href="#me44efd289c" y="303.64"/>
      </g>
     </g>
     <g id="text_2">
      <!-- 2000 -->
      <defs>
       <path d="M 19.1875 8.296875 
L 53.609375 8.296875 
L 53.609375 0 
L 7.328125 0 
L 7.328125 8.296875 
Q 12.9375 14.109375 22.625 23.890625 
Q 32.328125 33.6875 34.8125 36.53125 
Q 39.546875 41.84375 41.421875 45.53125 
Q 43.3125 49.21875 43.3125 52.78125 
Q 43.3125 58.59375 39.234375 62.25 
Q 35.15625 65.921875 28.609375 65.921875 
Q 23.96875 65.921875 18.8125 64.3125 
Q 13.671875 62.703125 7.8125 59.421875 
L 7.8125 69.390625 
Q 13.765625 71.78125 18.9375 73 
Q 24.125 74.21875 28.421875 74.21875 
Q 39.75 74.21875 46.484375 68.546875 
Q 53.21875 62.890625 53.21875 53.421875 
Q 53.21875 48.921875 51.53125 44.890625 
Q 49.859375 40.875 45.40625 35.40625 
Q 44.1875 33.984375 37.640625 27.21875 
Q 31.109375 20.453125 19.1875 8.296875 
z
" id="DejaVuSans-32"/>
      </defs>
      <g transform="translate(101.0557 318.238437)scale(0.1 -0.1)">
       <use xlink:href="#DejaVuSans-32"/>
       <use x="63.623047" xlink:href="#DejaVuSans-30"/>
       <use x="127.246094" xlink:href="#DejaVuSans-30"/>
       <use x="190.869141" xlink:href="#DejaVuSans-30"/>
      </g>
     </g>
    </g>
    <g id="xtick_3">
     <g id="line2d_3">
      <g>
       <use style="stroke:#000000;stroke-width:0.8;" x="170.719414" xlink:href="#me44efd289c" y="303.64"/>
      </g>
     </g>
     <g id="text_3">
      <!-- 4000 -->
      <defs>
       <path d="M 37.796875 64.3125 
L 12.890625 25.390625 
L 37.796875 25.390625 
z
M 35.203125 72.90625 
L 47.609375 72.90625 
L 47.609375 25.390625 
L 58.015625 25.390625 
L 58.015625 17.1875 
L 47.609375 17.1875 
L 47.609375 0 
L 37.796875 0 
L 37.796875 17.1875 
L 4.890625 17.1875 
L 4.890625 26.703125 
z
" id="DejaVuSans-34"/>
      </defs>
      <g transform="translate(157.994414 318.238437)scale(0.1 -0.1)">
       <use xlink:href="#DejaVuSans-34"/>
       <use x="63.623047" xlink:href="#DejaVuSans-30"/>
       <use x="127.246094" xlink:href="#DejaVuSans-30"/>
       <use x="190.869141" xlink:href="#DejaVuSans-30"/>
      </g>
     </g>
    </g>
    <g id="xtick_4">
     <g id="line2d_4">
      <g>
       <use style="stroke:#000000;stroke-width:0.8;" x="227.658129" xlink:href="#me44efd289c" y="303.64"/>
      </g>
     </g>
     <g id="text_4">
      <!-- 6000 -->
      <defs>
       <path d="M 33.015625 40.375 
Q 26.375 40.375 22.484375 35.828125 
Q 18.609375 31.296875 18.609375 23.390625 
Q 18.609375 15.53125 22.484375 10.953125 
Q 26.375 6.390625 33.015625 6.390625 
Q 39.65625 6.390625 43.53125 10.953125 
Q 47.40625 15.53125 47.40625 23.390625 
Q 47.40625 31.296875 43.53125 35.828125 
Q 39.65625 40.375 33.015625 40.375 
z
M 52.59375 71.296875 
L 52.59375 62.3125 
Q 48.875 64.0625 45.09375 64.984375 
Q 41.3125 65.921875 37.59375 65.921875 
Q 27.828125 65.921875 22.671875 59.328125 
Q 17.53125 52.734375 16.796875 39.40625 
Q 19.671875 43.65625 24.015625 45.921875 
Q 28.375 48.1875 33.59375 48.1875 
Q 44.578125 48.1875 50.953125 41.515625 
Q 57.328125 34.859375 57.328125 23.390625 
Q 57.328125 12.15625 50.6875 5.359375 
Q 44.046875 -1.421875 33.015625 -1.421875 
Q 20.359375 -1.421875 13.671875 8.265625 
Q 6.984375 17.96875 6.984375 36.375 
Q 6.984375 53.65625 15.1875 63.9375 
Q 23.390625 74.21875 37.203125 74.21875 
Q 40.921875 74.21875 44.703125 73.484375 
Q 48.484375 72.75 52.59375 71.296875 
z
" id="DejaVuSans-36"/>
      </defs>
      <g transform="translate(214.933129 318.238437)scale(0.1 -0.1)">
       <use xlink:href="#DejaVuSans-36"/>
       <use x="63.623047" xlink:href="#DejaVuSans-30"/>
       <use x="127.246094" xlink:href="#DejaVuSans-30"/>
       <use x="190.869141" xlink:href="#DejaVuSans-30"/>
      </g>
     </g>
    </g>
    <g id="xtick_5">
     <g id="line2d_5">
      <g>
       <use style="stroke:#000000;stroke-width:0.8;" x="284.596843" xlink:href="#me44efd289c" y="303.64"/>
      </g>
     </g>
     <g id="text_5">
      <!-- 8000 -->
      <defs>
       <path d="M 31.78125 34.625 
Q 24.75 34.625 20.71875 30.859375 
Q 16.703125 27.09375 16.703125 20.515625 
Q 16.703125 13.921875 20.71875 10.15625 
Q 24.75 6.390625 31.78125 6.390625 
Q 38.8125 6.390625 42.859375 10.171875 
Q 46.921875 13.96875 46.921875 20.515625 
Q 46.921875 27.09375 42.890625 30.859375 
Q 38.875 34.625 31.78125 34.625 
z
M 21.921875 38.8125 
Q 15.578125 40.375 12.03125 44.71875 
Q 8.5 49.078125 8.5 55.328125 
Q 8.5 64.0625 14.71875 69.140625 
Q 20.953125 74.21875 31.78125 74.21875 
Q 42.671875 74.21875 48.875 69.140625 
Q 55.078125 64.0625 55.078125 55.328125 
Q 55.078125 49.078125 51.53125 44.71875 
Q 48 40.375 41.703125 38.8125 
Q 48.828125 37.15625 52.796875 32.3125 
Q 56.78125 27.484375 56.78125 20.515625 
Q 56.78125 9.90625 50.3125 4.234375 
Q 43.84375 -1.421875 31.78125 -1.421875 
Q 19.734375 -1.421875 13.25 4.234375 
Q 6.78125 9.90625 6.78125 20.515625 
Q 6.78125 27.484375 10.78125 32.3125 
Q 14.796875 37.15625 21.921875 38.8125 
z
M 18.3125 54.390625 
Q 18.3125 48.734375 21.84375 45.5625 
Q 25.390625 42.390625 31.78125 42.390625 
Q 38.140625 42.390625 41.71875 45.5625 
Q 45.3125 48.734375 45.3125 54.390625 
Q 45.3125 60.0625 41.71875 63.234375 
Q 38.140625 66.40625 31.78125 66.40625 
Q 25.390625 66.40625 21.84375 63.234375 
Q 18.3125 60.0625 18.3125 54.390625 
z
" id="DejaVuSans-38"/>
      </defs>
      <g transform="translate(271.871843 318.238437)scale(0.1 -0.1)">
       <use xlink:href="#DejaVuSans-38"/>
       <use x="63.623047" xlink:href="#DejaVuSans-30"/>
       <use x="127.246094" xlink:href="#DejaVuSans-30"/>
       <use x="190.869141" xlink:href="#DejaVuSans-30"/>
      </g>
     </g>
    </g>
    <g id="xtick_6">
     <g id="line2d_6">
      <g>
       <use style="stroke:#000000;stroke-width:0.8;" x="341.535557" xlink:href="#me44efd289c" y="303.64"/>
      </g>
     </g>
     <g id="text_6">
      <!-- 10000 -->
      <defs>
       <path d="M 12.40625 8.296875 
L 28.515625 8.296875 
L 28.515625 63.921875 
L 10.984375 60.40625 
L 10.984375 69.390625 
L 28.421875 72.90625 
L 38.28125 72.90625 
L 38.28125 8.296875 
L 54.390625 8.296875 
L 54.390625 0 
L 12.40625 0 
z
" id="DejaVuSans-31"/>
      </defs>
      <g transform="translate(325.629307 318.238437)scale(0.1 -0.1)">
       <use xlink:href="#DejaVuSans-31"/>
       <use x="63.623047" xlink:href="#DejaVuSans-30"/>
       <use x="127.246094" xlink:href="#DejaVuSans-30"/>
       <use x="190.869141" xlink:href="#DejaVuSans-30"/>
       <use x="254.492188" xlink:href="#DejaVuSans-30"/>
      </g>
     </g>
    </g>
    <g id="xtick_7">
     <g id="line2d_7">
      <g>
       <use style="stroke:#000000;stroke-width:0.8;" x="398.474272" xlink:href="#me44efd289c" y="303.64"/>
      </g>
     </g>
     <g id="text_7">
      <!-- 12000 -->
      <g transform="translate(382.568022 318.238437)scale(0.1 -0.1)">
       <use xlink:href="#DejaVuSans-31"/>
       <use x="63.623047" xlink:href="#DejaVuSans-32"/>
       <use x="127.246094" xlink:href="#DejaVuSans-30"/>
       <use x="190.869141" xlink:href="#DejaVuSans-30"/>
       <use x="254.492188" xlink:href="#DejaVuSans-30"/>
      </g>
     </g>
    </g>
    <g id="text_8">
     <!-- Iteration -->
     <defs>
      <path d="M 9.8125 72.90625 
L 19.671875 72.90625 
L 19.671875 0 
L 9.8125 0 
z
" id="DejaVuSans-49"/>
      <path d="M 18.3125 70.21875 
L 18.3125 54.6875 
L 36.8125 54.6875 
L 36.8125 47.703125 
L 18.3125 47.703125 
L 18.3125 18.015625 
Q 18.3125 11.328125 20.140625 9.421875 
Q 21.96875 7.515625 27.59375 7.515625 
L 36.8125 7.515625 
L 36.8125 0 
L 27.59375 0 
Q 17.1875 0 13.234375 3.875 
Q 9.28125 7.765625 9.28125 18.015625 
L 9.28125 47.703125 
L 2.6875 47.703125 
L 2.6875 54.6875 
L 9.28125 54.6875 
L 9.28125 70.21875 
z
" id="DejaVuSans-74"/>
      <path d="M 56.203125 29.59375 
L 56.203125 25.203125 
L 14.890625 25.203125 
Q 15.484375 15.921875 20.484375 11.0625 
Q 25.484375 6.203125 34.421875 6.203125 
Q 39.59375 6.203125 44.453125 7.46875 
Q 49.3125 8.734375 54.109375 11.28125 
L 54.109375 2.78125 
Q 49.265625 0.734375 44.1875 -0.34375 
Q 39.109375 -1.421875 33.890625 -1.421875 
Q 20.796875 -1.421875 13.15625 6.1875 
Q 5.515625 13.8125 5.515625 26.8125 
Q 5.515625 40.234375 12.765625 48.109375 
Q 20.015625 56 32.328125 56 
Q 43.359375 56 49.78125 48.890625 
Q 56.203125 41.796875 56.203125 29.59375 
z
M 47.21875 32.234375 
Q 47.125 39.59375 43.09375 43.984375 
Q 39.0625 48.390625 32.421875 48.390625 
Q 24.90625 48.390625 20.390625 44.140625 
Q 15.875 39.890625 15.1875 32.171875 
z
" id="DejaVuSans-65"/>
      <path d="M 41.109375 46.296875 
Q 39.59375 47.171875 37.8125 47.578125 
Q 36.03125 48 33.890625 48 
Q 26.265625 48 22.1875 43.046875 
Q 18.109375 38.09375 18.109375 28.8125 
L 18.109375 0 
L 9.078125 0 
L 9.078125 54.6875 
L 18.109375 54.6875 
L 18.109375 46.1875 
Q 20.953125 51.171875 25.484375 53.578125 
Q 30.03125 56 36.53125 56 
Q 37.453125 56 38.578125 55.875 
Q 39.703125 55.765625 41.0625 55.515625 
z
" id="DejaVuSans-72"/>
      <path d="M 34.28125 27.484375 
Q 23.390625 27.484375 19.1875 25 
Q 14.984375 22.515625 14.984375 16.5 
Q 14.984375 11.71875 18.140625 8.90625 
Q 21.296875 6.109375 26.703125 6.109375 
Q 34.1875 6.109375 38.703125 11.40625 
Q 43.21875 16.703125 43.21875 25.484375 
L 43.21875 27.484375 
z
M 52.203125 31.203125 
L 52.203125 0 
L 43.21875 0 
L 43.21875 8.296875 
Q 40.140625 3.328125 35.546875 0.953125 
Q 30.953125 -1.421875 24.3125 -1.421875 
Q 15.921875 -1.421875 10.953125 3.296875 
Q 6 8.015625 6 15.921875 
Q 6 25.140625 12.171875 29.828125 
Q 18.359375 34.515625 30.609375 34.515625 
L 43.21875 34.515625 
L 43.21875 35.40625 
Q 43.21875 41.609375 39.140625 45 
Q 35.0625 48.390625 27.6875 48.390625 
Q 23 48.390625 18.546875 47.265625 
Q 14.109375 46.140625 10.015625 43.890625 
L 10.015625 52.203125 
Q 14.9375 54.109375 19.578125 55.046875 
Q 24.21875 56 28.609375 56 
Q 40.484375 56 46.34375 49.84375 
Q 52.203125 43.703125 52.203125 31.203125 
z
" id="DejaVuSans-61"/>
      <path d="M 9.421875 54.6875 
L 18.40625 54.6875 
L 18.40625 0 
L 9.421875 0 
z
M 9.421875 75.984375 
L 18.40625 75.984375 
L 18.40625 64.59375 
L 9.421875 64.59375 
z
" id="DejaVuSans-69"/>
      <path d="M 30.609375 48.390625 
Q 23.390625 48.390625 19.1875 42.75 
Q 14.984375 37.109375 14.984375 27.296875 
Q 14.984375 17.484375 19.15625 11.84375 
Q 23.34375 6.203125 30.609375 6.203125 
Q 37.796875 6.203125 41.984375 11.859375 
Q 46.1875 17.53125 46.1875 27.296875 
Q 46.1875 37.015625 41.984375 42.703125 
Q 37.796875 48.390625 30.609375 48.390625 
z
M 30.609375 56 
Q 42.328125 56 49.015625 48.375 
Q 55.71875 40.765625 55.71875 27.296875 
Q 55.71875 13.875 49.015625 6.21875 
Q 42.328125 -1.421875 30.609375 -1.421875 
Q 18.84375 -1.421875 12.171875 6.21875 
Q 5.515625 13.875 5.515625 27.296875 
Q 5.515625 40.765625 12.171875 48.375 
Q 18.84375 56 30.609375 56 
z
" id="DejaVuSans-6f"/>
      <path d="M 54.890625 33.015625 
L 54.890625 0 
L 45.90625 0 
L 45.90625 32.71875 
Q 45.90625 40.484375 42.875 44.328125 
Q 39.84375 48.1875 33.796875 48.1875 
Q 26.515625 48.1875 22.3125 43.546875 
Q 18.109375 38.921875 18.109375 30.90625 
L 18.109375 0 
L 9.078125 0 
L 9.078125 54.6875 
L 18.109375 54.6875 
L 18.109375 46.1875 
Q 21.34375 51.125 25.703125 53.5625 
Q 30.078125 56 35.796875 56 
Q 45.21875 56 50.046875 50.171875 
Q 54.890625 44.34375 54.890625 33.015625 
z
" id="DejaVuSans-6e"/>
     </defs>
     <g transform="translate(221.666406 331.916562)scale(0.1 -0.1)">
      <use xlink:href="#DejaVuSans-49"/>
      <use x="29.492188" xlink:href="#DejaVuSans-74"/>
      <use x="68.701172" xlink:href="#DejaVuSans-65"/>
      <use x="130.224609" xlink:href="#DejaVuSans-72"/>
      <use x="171.337891" xlink:href="#DejaVuSans-61"/>
      <use x="232.617188" xlink:href="#DejaVuSans-74"/>
      <use x="271.826172" xlink:href="#DejaVuSans-69"/>
      <use x="299.609375" xlink:href="#DejaVuSans-6f"/>
      <use x="360.791016" xlink:href="#DejaVuSans-6e"/>
     </g>
    </g>
   </g>
   <g id="matplotlib.axis_2">
    <g id="ytick_1">
     <g id="line2d_8">
      <defs>
       <path d="M 0 0 
L -3.5 0 
" id="mc0efb3156a" style="stroke:#000000;stroke-width:0.8;"/>
      </defs>
      <g>
       <use style="stroke:#000000;stroke-width:0.8;" x="38.27" xlink:href="#mc0efb3156a" y="303.64"/>
      </g>
     </g>
     <g id="text_9">
      <!-- 0 -->
      <g transform="translate(24.9075 307.439219)scale(0.1 -0.1)">
       <use xlink:href="#DejaVuSans-30"/>
      </g>
     </g>
    </g>
    <g id="ytick_2">
     <g id="line2d_9">
      <g>
       <use style="stroke:#000000;stroke-width:0.8;" x="38.27" xlink:href="#mc0efb3156a" y="267.53"/>
      </g>
     </g>
     <g id="text_10">
      <!-- 1 -->
      <g transform="translate(24.9075 271.329219)scale(0.1 -0.1)">
       <use xlink:href="#DejaVuSans-31"/>
      </g>
     </g>
    </g>
    <g id="ytick_3">
     <g id="line2d_10">
      <g>
       <use style="stroke:#000000;stroke-width:0.8;" x="38.27" xlink:href="#mc0efb3156a" y="231.42"/>
      </g>
     </g>
     <g id="text_11">
      <!-- 2 -->
      <g transform="translate(24.9075 235.219219)scale(0.1 -0.1)">
       <use xlink:href="#DejaVuSans-32"/>
      </g>
     </g>
    </g>
    <g id="ytick_4">
     <g id="line2d_11">
      <g>
       <use style="stroke:#000000;stroke-width:0.8;" x="38.27" xlink:href="#mc0efb3156a" y="195.31"/>
      </g>
     </g>
     <g id="text_12">
      <!-- 3 -->
      <defs>
       <path d="M 40.578125 39.3125 
Q 47.65625 37.796875 51.625 33 
Q 55.609375 28.21875 55.609375 21.1875 
Q 55.609375 10.40625 48.1875 4.484375 
Q 40.765625 -1.421875 27.09375 -1.421875 
Q 22.515625 -1.421875 17.65625 -0.515625 
Q 12.796875 0.390625 7.625 2.203125 
L 7.625 11.71875 
Q 11.71875 9.328125 16.59375 8.109375 
Q 21.484375 6.890625 26.8125 6.890625 
Q 36.078125 6.890625 40.9375 10.546875 
Q 45.796875 14.203125 45.796875 21.1875 
Q 45.796875 27.640625 41.28125 31.265625 
Q 36.765625 34.90625 28.71875 34.90625 
L 20.21875 34.90625 
L 20.21875 43.015625 
L 29.109375 43.015625 
Q 36.375 43.015625 40.234375 45.921875 
Q 44.09375 48.828125 44.09375 54.296875 
Q 44.09375 59.90625 40.109375 62.90625 
Q 36.140625 65.921875 28.71875 65.921875 
Q 24.65625 65.921875 20.015625 65.03125 
Q 15.375 64.15625 9.8125 62.3125 
L 9.8125 71.09375 
Q 15.4375 72.65625 20.34375 73.4375 
Q 25.25 74.21875 29.59375 74.21875 
Q 40.828125 74.21875 47.359375 69.109375 
Q 53.90625 64.015625 53.90625 55.328125 
Q 53.90625 49.265625 50.4375 45.09375 
Q 46.96875 40.921875 40.578125 39.3125 
z
" id="DejaVuSans-33"/>
      </defs>
      <g transform="translate(24.9075 199.109219)scale(0.1 -0.1)">
       <use xlink:href="#DejaVuSans-33"/>
      </g>
     </g>
    </g>
    <g id="ytick_5">
     <g id="line2d_12">
      <g>
       <use style="stroke:#000000;stroke-width:0.8;" x="38.27" xlink:href="#mc0efb3156a" y="159.2"/>
      </g>
     </g>
     <g id="text_13">
      <!-- 4 -->
      <g transform="translate(24.9075 162.999219)scale(0.1 -0.1)">
       <use xlink:href="#DejaVuSans-34"/>
      </g>
     </g>
    </g>
    <g id="ytick_6">
     <g id="line2d_13">
      <g>
       <use style="stroke:#000000;stroke-width:0.8;" x="38.27" xlink:href="#mc0efb3156a" y="123.09"/>
      </g>
     </g>
     <g id="text_14">
      <!-- 5 -->
      <defs>
       <path d="M 10.796875 72.90625 
L 49.515625 72.90625 
L 49.515625 64.59375 
L 19.828125 64.59375 
L 19.828125 46.734375 
Q 21.96875 47.46875 24.109375 47.828125 
Q 26.265625 48.1875 28.421875 48.1875 
Q 40.625 48.1875 47.75 41.5 
Q 54.890625 34.8125 54.890625 23.390625 
Q 54.890625 11.625 47.5625 5.09375 
Q 40.234375 -1.421875 26.90625 -1.421875 
Q 22.3125 -1.421875 17.546875 -0.640625 
Q 12.796875 0.140625 7.71875 1.703125 
L 7.71875 11.625 
Q 12.109375 9.234375 16.796875 8.0625 
Q 21.484375 6.890625 26.703125 6.890625 
Q 35.15625 6.890625 40.078125 11.328125 
Q 45.015625 15.765625 45.015625 23.390625 
Q 45.015625 31 40.078125 35.4375 
Q 35.15625 39.890625 26.703125 39.890625 
Q 22.75 39.890625 18.8125 39.015625 
Q 14.890625 38.140625 10.796875 36.28125 
z
" id="DejaVuSans-35"/>
      </defs>
      <g transform="translate(24.9075 126.889219)scale(0.1 -0.1)">
       <use xlink:href="#DejaVuSans-35"/>
      </g>
     </g>
    </g>
    <g id="ytick_7">
     <g id="line2d_14">
      <g>
       <use style="stroke:#000000;stroke-width:0.8;" x="38.27" xlink:href="#mc0efb3156a" y="86.98"/>
      </g>
     </g>
     <g id="text_15">
      <!-- 6 -->
      <g transform="translate(24.9075 90.779219)scale(0.1 -0.1)">
       <use xlink:href="#DejaVuSans-36"/>
      </g>
     </g>
    </g>
    <g id="ytick_8">
     <g id="line2d_15">
      <g>
       <use style="stroke:#000000;stroke-width:0.8;" x="38.27" xlink:href="#mc0efb3156a" y="50.87"/>
      </g>
     </g>
     <g id="text_16">
      <!-- 7 -->
      <defs>
       <path d="M 8.203125 72.90625 
L 55.078125 72.90625 
L 55.078125 68.703125 
L 28.609375 0 
L 18.3125 0 
L 43.21875 64.59375 
L 8.203125 64.59375 
z
" id="DejaVuSans-37"/>
      </defs>
      <g transform="translate(24.9075 54.669219)scale(0.1 -0.1)">
       <use xlink:href="#DejaVuSans-37"/>
      </g>
     </g>
    </g>
    <g id="ytick_9">
     <g id="line2d_16">
      <g>
       <use style="stroke:#000000;stroke-width:0.8;" x="38.27" xlink:href="#mc0efb3156a" y="14.76"/>
      </g>
     </g>
     <g id="text_17">
      <!-- 8 -->
      <g transform="translate(24.9075 18.559219)scale(0.1 -0.1)">
       <use xlink:href="#DejaVuSans-38"/>
      </g>
     </g>
    </g>
    <g id="ytick_10">
     <g id="line2d_17">
      <path clip-path="url(#p9744d4a9ca)" d="M 38.27 303.64 
L 447.48 303.64 
" style="fill:none;stroke:#b0b0b0;stroke-linecap:square;stroke-width:0.8;"/>
     </g>
     <g id="line2d_18">
      <defs>
       <path d="M 0 0 
L -2 0 
" id="mfcdff4296a" style="stroke:#000000;stroke-width:0.6;"/>
      </defs>
      <g>
       <use style="stroke:#000000;stroke-width:0.6;" x="38.27" xlink:href="#mfcdff4296a" y="303.64"/>
      </g>
     </g>
    </g>
    <g id="ytick_11">
     <g id="line2d_19">
      <path clip-path="url(#p9744d4a9ca)" d="M 38.27 285.585 
L 447.48 285.585 
" style="fill:none;stroke:#b0b0b0;stroke-linecap:square;stroke-width:0.8;"/>
     </g>
     <g id="line2d_20">
      <g>
       <use style="stroke:#000000;stroke-width:0.6;" x="38.27" xlink:href="#mfcdff4296a" y="285.585"/>
      </g>
     </g>
    </g>
    <g id="ytick_12">
     <g id="line2d_21">
      <path clip-path="url(#p9744d4a9ca)" d="M 38.27 267.53 
L 447.48 267.53 
" style="fill:none;stroke:#b0b0b0;stroke-linecap:square;stroke-width:0.8;"/>
     </g>
     <g id="line2d_22">
      <g>
       <use style="stroke:#000000;stroke-width:0.6;" x="38.27" xlink:href="#mfcdff4296a" y="267.53"/>
      </g>
     </g>
    </g>
    <g id="ytick_13">
     <g id="line2d_23">
      <path clip-path="url(#p9744d4a9ca)" d="M 38.27 249.475 
L 447.48 249.475 
" style="fill:none;stroke:#b0b0b0;stroke-linecap:square;stroke-width:0.8;"/>
     </g>
     <g id="line2d_24">
      <g>
       <use style="stroke:#000000;stroke-width:0.6;" x="38.27" xlink:href="#mfcdff4296a" y="249.475"/>
      </g>
     </g>
    </g>
    <g id="ytick_14">
     <g id="line2d_25">
      <path clip-path="url(#p9744d4a9ca)" d="M 38.27 231.42 
L 447.48 231.42 
" style="fill:none;stroke:#b0b0b0;stroke-linecap:square;stroke-width:0.8;"/>
     </g>
     <g id="line2d_26">
      <g>
       <use style="stroke:#000000;stroke-width:0.6;" x="38.27" xlink:href="#mfcdff4296a" y="231.42"/>
      </g>
     </g>
    </g>
    <g id="ytick_15">
     <g id="line2d_27">
      <path clip-path="url(#p9744d4a9ca)" d="M 38.27 213.365 
L 447.48 213.365 
" style="fill:none;stroke:#b0b0b0;stroke-linecap:square;stroke-width:0.8;"/>
     </g>
     <g id="line2d_28">
      <g>
       <use style="stroke:#000000;stroke-width:0.6;" x="38.27" xlink:href="#mfcdff4296a" y="213.365"/>
      </g>
     </g>
    </g>
    <g id="ytick_16">
     <g id="line2d_29">
      <path clip-path="url(#p9744d4a9ca)" d="M 38.27 195.31 
L 447.48 195.31 
" style="fill:none;stroke:#b0b0b0;stroke-linecap:square;stroke-width:0.8;"/>
     </g>
     <g id="line2d_30">
      <g>
       <use style="stroke:#000000;stroke-width:0.6;" x="38.27" xlink:href="#mfcdff4296a" y="195.31"/>
      </g>
     </g>
    </g>
    <g id="ytick_17">
     <g id="line2d_31">
      <path clip-path="url(#p9744d4a9ca)" d="M 38.27 177.255 
L 447.48 177.255 
" style="fill:none;stroke:#b0b0b0;stroke-linecap:square;stroke-width:0.8;"/>
     </g>
     <g id="line2d_32">
      <g>
       <use style="stroke:#000000;stroke-width:0.6;" x="38.27" xlink:href="#mfcdff4296a" y="177.255"/>
      </g>
     </g>
    </g>
    <g id="ytick_18">
     <g id="line2d_33">
      <path clip-path="url(#p9744d4a9ca)" d="M 38.27 159.2 
L 447.48 159.2 
" style="fill:none;stroke:#b0b0b0;stroke-linecap:square;stroke-width:0.8;"/>
     </g>
     <g id="line2d_34">
      <g>
       <use style="stroke:#000000;stroke-width:0.6;" x="38.27" xlink:href="#mfcdff4296a" y="159.2"/>
      </g>
     </g>
    </g>
    <g id="ytick_19">
     <g id="line2d_35">
      <path clip-path="url(#p9744d4a9ca)" d="M 38.27 141.145 
L 447.48 141.145 
" style="fill:none;stroke:#b0b0b0;stroke-linecap:square;stroke-width:0.8;"/>
     </g>
     <g id="line2d_36">
      <g>
       <use style="stroke:#000000;stroke-width:0.6;" x="38.27" xlink:href="#mfcdff4296a" y="141.145"/>
      </g>
     </g>
    </g>
    <g id="ytick_20">
     <g id="line2d_37">
      <path clip-path="url(#p9744d4a9ca)" d="M 38.27 123.09 
L 447.48 123.09 
" style="fill:none;stroke:#b0b0b0;stroke-linecap:square;stroke-width:0.8;"/>
     </g>
     <g id="line2d_38">
      <g>
       <use style="stroke:#000000;stroke-width:0.6;" x="38.27" xlink:href="#mfcdff4296a" y="123.09"/>
      </g>
     </g>
    </g>
    <g id="ytick_21">
     <g id="line2d_39">
      <path clip-path="url(#p9744d4a9ca)" d="M 38.27 105.035 
L 447.48 105.035 
" style="fill:none;stroke:#b0b0b0;stroke-linecap:square;stroke-width:0.8;"/>
     </g>
     <g id="line2d_40">
      <g>
       <use style="stroke:#000000;stroke-width:0.6;" x="38.27" xlink:href="#mfcdff4296a" y="105.035"/>
      </g>
     </g>
    </g>
    <g id="ytick_22">
     <g id="line2d_41">
      <path clip-path="url(#p9744d4a9ca)" d="M 38.27 86.98 
L 447.48 86.98 
" style="fill:none;stroke:#b0b0b0;stroke-linecap:square;stroke-width:0.8;"/>
     </g>
     <g id="line2d_42">
      <g>
       <use style="stroke:#000000;stroke-width:0.6;" x="38.27" xlink:href="#mfcdff4296a" y="86.98"/>
      </g>
     </g>
    </g>
    <g id="ytick_23">
     <g id="line2d_43">
      <path clip-path="url(#p9744d4a9ca)" d="M 38.27 68.925 
L 447.48 68.925 
" style="fill:none;stroke:#b0b0b0;stroke-linecap:square;stroke-width:0.8;"/>
     </g>
     <g id="line2d_44">
      <g>
       <use style="stroke:#000000;stroke-width:0.6;" x="38.27" xlink:href="#mfcdff4296a" y="68.925"/>
      </g>
     </g>
    </g>
    <g id="ytick_24">
     <g id="line2d_45">
      <path clip-path="url(#p9744d4a9ca)" d="M 38.27 50.87 
L 447.48 50.87 
" style="fill:none;stroke:#b0b0b0;stroke-linecap:square;stroke-width:0.8;"/>
     </g>
     <g id="line2d_46">
      <g>
       <use style="stroke:#000000;stroke-width:0.6;" x="38.27" xlink:href="#mfcdff4296a" y="50.87"/>
      </g>
     </g>
    </g>
    <g id="ytick_25">
     <g id="line2d_47">
      <path clip-path="url(#p9744d4a9ca)" d="M 38.27 32.815 
L 447.48 32.815 
" style="fill:none;stroke:#b0b0b0;stroke-linecap:square;stroke-width:0.8;"/>
     </g>
     <g id="line2d_48">
      <g>
       <use style="stroke:#000000;stroke-width:0.6;" x="38.27" xlink:href="#mfcdff4296a" y="32.815"/>
      </g>
     </g>
    </g>
    <g id="ytick_26">
     <g id="line2d_49">
      <path clip-path="url(#p9744d4a9ca)" d="M 38.27 14.76 
L 447.48 14.76 
" style="fill:none;stroke:#b0b0b0;stroke-linecap:square;stroke-width:0.8;"/>
     </g>
     <g id="line2d_50">
      <g>
       <use style="stroke:#000000;stroke-width:0.6;" x="38.27" xlink:href="#mfcdff4296a" y="14.76"/>
      </g>
     </g>
    </g>
    <g id="text_18">
     <!-- Loss -->
     <defs>
      <path d="M 9.8125 72.90625 
L 19.671875 72.90625 
L 19.671875 8.296875 
L 55.171875 8.296875 
L 55.171875 0 
L 9.8125 0 
z
" id="DejaVuSans-4c"/>
      <path d="M 44.28125 53.078125 
L 44.28125 44.578125 
Q 40.484375 46.53125 36.375 47.5 
Q 32.28125 48.484375 27.875 48.484375 
Q 21.1875 48.484375 17.84375 46.4375 
Q 14.5 44.390625 14.5 40.28125 
Q 14.5 37.15625 16.890625 35.375 
Q 19.28125 33.59375 26.515625 31.984375 
L 29.59375 31.296875 
Q 39.15625 29.25 43.1875 25.515625 
Q 47.21875 21.78125 47.21875 15.09375 
Q 47.21875 7.46875 41.1875 3.015625 
Q 35.15625 -1.421875 24.609375 -1.421875 
Q 20.21875 -1.421875 15.453125 -0.5625 
Q 10.6875 0.296875 5.421875 2 
L 5.421875 11.28125 
Q 10.40625 8.6875 15.234375 7.390625 
Q 20.0625 6.109375 24.8125 6.109375 
Q 31.15625 6.109375 34.5625 8.28125 
Q 37.984375 10.453125 37.984375 14.40625 
Q 37.984375 18.0625 35.515625 20.015625 
Q 33.0625 21.96875 24.703125 23.78125 
L 21.578125 24.515625 
Q 13.234375 26.265625 9.515625 29.90625 
Q 5.8125 33.546875 5.8125 39.890625 
Q 5.8125 47.609375 11.28125 51.796875 
Q 16.75 56 26.8125 56 
Q 31.78125 56 36.171875 55.265625 
Q 40.578125 54.546875 44.28125 53.078125 
z
" id="DejaVuSans-73"/>
     </defs>
     <g transform="translate(18.827813 170.253906)rotate(-90)scale(0.1 -0.1)">
      <use xlink:href="#DejaVuSans-4c"/>
      <use x="55.697266" xlink:href="#DejaVuSans-6f"/>
      <use x="116.878906" xlink:href="#DejaVuSans-73"/>
      <use x="168.978516" xlink:href="#DejaVuSans-73"/>
     </g>
    </g>
   </g>
   <g id="line2d_51">
    <path clip-path="url(#p9744d4a9ca)" d="M 57.914472 -1 
L 57.95229 27.722262 
L 58.208514 44.482719 
L 58.293922 94.362762 
L 58.550147 109.148398 
L 58.635555 145.613251 
L 58.891779 156.005529 
L 58.977187 180.893046 
L 59.233411 185.872074 
L 59.318819 203.833224 
L 59.575043 207.928603 
L 59.660452 220.950772 
L 59.916676 224.742755 
L 59.945145 218.402453 
L 60.002084 225.571119 
L 60.258308 227.888984 
L 60.343716 232.169499 
L 60.59994 232.487412 
L 60.685348 238.265192 
L 60.941573 237.616584 
L 61.026981 244.075688 
L 61.283205 246.815823 
L 61.368613 253.006016 
L 61.624837 253.571246 
L 61.710245 258.209576 
L 61.966469 257.186652 
L 62.023408 258.822507 
L 62.051878 258.365246 
L 62.36504 259.176385 
L 62.39351 260.360107 
L 62.649734 260.608219 
L 62.706673 263.045463 
L 62.735142 262.991479 
L 62.991366 262.559783 
L 63.076774 265.594576 
L 63.332999 266.065017 
L 63.418407 264.60379 
L 63.674631 264.831644 
L 63.73157 264.146854 
L 63.760039 264.224743 
L 64.016263 263.285089 
L 64.044733 264.172456 
L 64.101671 262.73582 
L 64.357895 262.31911 
L 64.414834 264.168448 
L 64.443304 263.397463 
L 64.699528 264.171048 
L 64.784936 265.625342 
L 65.04116 265.146704 
L 65.126568 267.484357 
L 65.411262 267.7008 
L 65.4682 267.973322 
L 65.781363 269.281841 
L 65.809833 269.888922 
L 66.066057 269.385404 
L 66.122996 270.843273 
L 66.151465 270.805177 
L 66.407689 271.818604 
L 66.436159 271.697022 
L 66.493097 269.523705 
L 66.749322 269.777523 
L 66.777791 269.419961 
L 66.80626 269.956736 
L 66.83473 270.275443 
L 67.090954 271.199895 
L 67.176362 270.371496 
L 67.461055 272.341188 
L 67.517994 271.692255 
L 67.859626 270.37081 
L 68.115851 270.300143 
L 68.14432 271.354121 
L 68.201259 270.29599 
L 68.457483 270.820993 
L 68.485952 270.240705 
L 68.514422 271.408322 
L 68.542891 271.609924 
L 68.799115 271.733746 
L 68.827585 272.603166 
L 68.884523 272.549868 
L 69.140748 272.927903 
L 69.226156 271.432913 
L 69.48238 271.457071 
L 69.567788 272.418319 
L 69.824012 271.714246 
L 69.852481 271.801271 
L 69.880951 271.942173 
L 69.90942 272.855358 
L 70.165644 273.686466 
L 70.251052 271.247958 
L 70.507277 271.089724 
L 70.592685 272.559545 
L 70.848909 272.605152 
L 70.934317 273.468001 
L 71.190541 273.797504 
L 71.275949 275.511502 
L 71.532174 275.343048 
L 71.560643 274.980937 
L 71.589112 275.469506 
L 71.617582 275.155204 
L 71.873806 274.43434 
L 71.959214 273.290014 
L 72.215438 272.626926 
L 72.272377 274.452612 
L 72.300846 274.262096 
L 72.55707 274.25574 
L 72.614009 275.736322 
L 72.642478 273.955919 
L 72.898703 274.585605 
L 72.984111 276.090056 
L 73.240335 276.937847 
L 73.297274 275.53194 
L 73.325743 275.721337 
L 73.581967 275.278917 
L 73.667375 274.783488 
L 73.952069 274.946236 
L 73.980538 274.640745 
L 74.009008 275.261982 
L 74.293701 275.485864 
L 74.35064 273.997373 
L 74.606864 274.034819 
L 74.635333 273.514583 
L 74.663803 274.223891 
L 74.692272 274.913412 
L 74.976966 275.838622 
L 75.033904 274.93988 
L 75.290129 275.125089 
L 75.347067 274.010264 
L 75.375537 274.508149 
L 75.631761 274.166585 
L 75.717169 276.218355 
L 76.001863 276.066332 
L 76.058801 276.813628 
L 76.315026 276.907478 
L 76.371964 278.16129 
L 76.400434 277.815753 
L 76.656658 277.717967 
L 76.742066 277.259803 
L 76.99829 274.70159 
L 77.026759 275.59506 
L 77.083698 275.41758 
L 77.368392 275.250282 
L 77.396861 275.831906 
L 77.42533 275.405483 
L 77.681555 275.347057 
L 77.766963 276.463433 
L 78.023187 277.106444 
L 78.051656 276.935102 
L 78.080126 276.74993 
L 78.108595 277.217049 
L 78.364819 276.611665 
L 78.393289 276.248904 
L 78.450227 276.626001 
L 78.734921 277.016061 
L 78.79186 278.137962 
L 79.048084 278.479491 
L 79.105023 278.156631 
L 79.133492 278.773137 
L 79.389716 278.875256 
L 79.446655 279.476921 
L 79.475124 278.872115 
L 79.788287 277.953513 
L 79.816756 277.080048 
L 80.072981 277.702006 
L 80.129919 276.838652 
L 80.158389 273.684588 
L 80.443082 274.865422 
L 80.500021 275.991295 
L 80.756245 276.285339 
L 80.784715 276.530526 
L 80.813184 276.304152 
L 80.841653 275.514246 
L 81.097878 275.242952 
L 81.126347 275.399416 
L 81.154816 274.175901 
L 81.183286 275.138702 
L 81.43951 274.08819 
L 81.467979 274.261698 
L 81.524918 275.705593 
L 81.781142 275.904884 
L 81.838081 276.734836 
L 81.86655 276.609896 
L 82.122774 276.820778 
L 82.179713 276.531392 
L 82.208182 277.392399 
L 82.492876 278.30053 
L 82.549815 278.079789 
L 82.834508 276.981829 
L 82.862978 277.677632 
L 82.891447 277.258612 
L 83.176141 277.007033 
L 83.20461 277.390052 
L 83.233079 277.281578 
L 83.517773 277.889778 
L 83.546242 278.267886 
L 83.574712 277.979548 
L 83.830936 277.19625 
L 83.916344 277.262728 
L 84.172568 277.425729 
L 84.257976 275.165532 
L 84.5142 275.206553 
L 84.599608 276.391611 
L 84.855833 276.17932 
L 84.884302 276.255873 
L 84.941241 277.169384 
L 85.225934 276.712773 
L 85.254404 275.783302 
L 85.282873 277.112691 
L 85.539097 276.95861 
L 85.624505 277.909133 
L 85.909199 278.887137 
L 85.937668 278.824197 
L 85.966138 278.54095 
L 86.222362 279.027352 
L 86.30777 278.221954 
L 86.563994 278.79567 
L 86.592463 279.684734 
L 86.649402 278.378202 
L 86.905626 279.033382 
L 86.934096 278.626386 
L 86.962565 279.419615 
L 86.991034 278.811414 
L 87.304197 279.787828 
L 87.332667 280.184533 
L 87.588891 280.035724 
L 87.61736 280.692709 
L 87.64583 279.98795 
L 87.674299 280.408668 
L 87.958993 279.872579 
L 87.987462 279.355194 
L 88.015931 280.087866 
L 88.272156 280.082775 
L 88.300625 279.757532 
L 88.357564 279.974445 
L 88.613788 279.712828 
L 88.642257 280.469116 
L 88.699196 280.187313 
L 88.95542 279.847771 
L 89.040828 280.695056 
L 89.297052 281.07905 
L 89.325522 281.49612 
L 89.353991 281.00488 
L 89.382461 281.308276 
L 89.667154 282.072039 
L 89.695623 281.875853 
L 89.724093 282.520633 
L 89.980317 282.983491 
L 90.065725 281.986169 
L 90.321949 281.652188 
L 90.378888 280.986969 
L 90.407357 281.217784 
L 90.663582 281.399851 
L 90.72052 282.231139 
L 90.74899 281.863503 
L 91.062153 282.601339 
L 91.090622 282.855553 
L 91.375316 283.054628 
L 91.403785 282.292237 
L 91.432254 282.596789 
L 91.716948 282.116057 
L 91.745417 281.379918 
L 91.773887 281.740513 
L 92.030111 281.262814 
L 92.115519 282.295054 
L 92.400212 282.541938 
L 92.428682 282.0724 
L 92.457151 282.19391 
L 92.713375 281.813852 
L 92.798783 280.152756 
L 93.055008 278.813978 
L 93.083477 278.949571 
L 93.111946 279.475982 
L 93.140416 278.798523 
L 93.39664 278.688929 
L 93.453579 279.235056 
L 93.482048 277.808098 
L 93.738272 277.683518 
L 93.795211 277.010067 
L 93.82368 277.562008 
L 94.079904 277.224596 
L 94.165313 278.173459 
L 94.421537 278.025913 
L 94.450006 278.215996 
L 94.506945 279.306374 
L 94.763169 279.269469 
L 94.848577 280.37476 
L 95.133271 281.021563 
L 95.16174 281.363091 
L 95.190209 280.918071 
L 95.446434 280.3536 
L 95.531842 281.332325 
L 95.788066 281.361213 
L 95.845005 281.564729 
L 95.873474 281.15712 
L 96.129698 281.643088 
L 96.186637 280.830432 
L 96.215106 280.888858 
L 96.47133 280.909297 
L 96.556739 281.742607 
L 96.869901 280.107077 
L 96.898371 280.893011 
L 97.154595 278.902375 
L 97.183064 279.262897 
L 97.211534 279.550405 
L 97.240003 279.173742 
L 97.496227 279.349381 
L 97.524697 280.153298 
L 97.553166 279.974084 
L 97.581635 278.01183 
L 97.83786 277.844135 
L 97.866329 278.19173 
L 97.894798 278.153598 
L 97.923268 277.093986 
L 98.179492 277.108178 
L 98.236431 278.264347 
L 98.2649 277.838899 
L 98.549594 278.699834 
L 98.606532 279.350608 
L 98.891226 279.933496 
L 98.919695 279.740958 
L 98.948165 279.91295 
L 99.261327 280.338036 
L 99.289797 280.127696 
L 99.546021 280.681948 
L 99.631429 281.752537 
L 99.887653 281.495362 
L 99.916123 281.034707 
L 99.944592 281.731269 
L 99.973061 281.48081 
L 100.286224 280.511942 
L 100.314694 280.777062 
L 100.599387 280.801581 
L 100.627857 281.133648 
L 100.656326 280.929663 
L 100.91255 280.663279 
L 100.997958 281.826563 
L 101.282652 281.030482 
L 101.339591 281.101257 
L 101.595815 281.362441 
L 101.624284 281.70675 
L 101.681223 281.659193 
L 101.937447 281.036007 
L 101.965916 281.221937 
L 101.994386 281.443472 
L 102.022855 281.121985 
L 102.279079 281.796519 
L 102.364487 280.725388 
L 102.620712 281.139353 
L 102.67765 281.736613 
L 102.70612 280.87752 
L 102.990813 281.207312 
L 103.047752 281.852273 
L 103.303976 281.65421 
L 103.389384 280.724738 
L 103.645608 280.83213 
L 103.731017 282.079297 
L 103.987241 281.693606 
L 104.044179 280.813822 
L 104.072649 281.291918 
L 104.328873 281.19518 
L 104.414281 281.921027 
L 104.670505 281.698697 
L 104.755913 280.279647 
L 105.012138 279.960326 
L 105.040607 280.402421 
L 105.069076 279.836902 
L 105.097546 280.0727 
L 105.382239 280.76269 
L 105.410709 280.743118 
L 105.439178 281.222659 
L 105.695402 281.343664 
L 105.752341 282.409703 
L 105.78081 282.395656 
L 106.093973 281.405412 
L 106.122443 281.444158 
L 106.378667 281.882497 
L 106.407136 282.366877 
L 106.435605 282.169355 
L 106.464075 281.398551 
L 106.720299 281.926263 
L 106.777238 281.497781 
L 106.805707 281.520025 
L 107.061931 281.037307 
L 107.11887 281.641571 
L 107.147339 281.318748 
L 107.403564 281.502801 
L 107.488972 282.959839 
L 107.745196 282.942615 
L 107.802135 284.396873 
L 107.830604 284.280598 
L 108.086828 284.533116 
L 108.143767 285.207253 
L 108.172236 284.067658 
L 108.513869 283.05322 
L 108.770093 282.859887 
L 108.798562 283.086224 
L 108.855501 282.748559 
L 109.111725 282.418514 
L 109.197133 282.895274 
L 109.510296 281.758351 
L 109.538765 282.007691 
L 109.79499 282.745996 
L 109.823459 282.444044 
L 109.851928 283.206651 
L 109.880398 282.871731 
L 110.136622 283.397276 
L 110.22203 282.877942 
L 110.535193 283.066472 
L 110.563662 283.456677 
L 110.819886 282.934851 
L 110.848356 283.373985 
L 110.905295 283.292412 
L 111.161519 283.364668 
L 111.189988 283.820485 
L 111.218457 283.241605 
L 111.246927 283.298695 
L 111.503151 283.269735 
L 111.588559 283.985652 
L 111.844783 284.417708 
L 111.901722 284.762956 
L 111.930191 284.67965 
L 112.186416 284.925993 
L 112.214885 284.664448 
L 112.271824 284.742554 
L 112.584987 284.796827 
L 112.613456 285.272757 
L 112.86968 284.657695 
L 112.955088 283.866236 
L 113.211313 283.813588 
L 113.239782 284.064986 
L 113.268251 283.580137 
L 113.296721 283.818463 
L 113.552945 283.487659 
L 113.609884 284.431574 
L 113.638353 283.656762 
L 113.979985 282.615819 
L 114.236209 282.690964 
L 114.321617 283.598408 
L 114.606311 281.905174 
L 114.63478 280.970539 
L 114.66325 281.429895 
L 114.919474 281.48359 
L 115.004882 280.876003 
L 115.289576 280.703289 
L 115.318045 281.209985 
L 115.346514 280.931757 
L 115.602739 281.142495 
L 115.631208 281.659121 
L 115.688147 281.108913 
L 115.944371 281.615247 
L 115.97284 282.475098 
L 116.029779 281.767667 
L 116.286003 281.419675 
L 116.314472 281.775503 
L 116.371411 281.632074 
L 116.656105 281.751671 
L 116.713043 282.482104 
L 117.026206 281.755787 
L 117.054676 281.504714 
L 117.3109 281.396204 
L 117.396308 282.379335 
L 117.652532 281.752971 
L 117.709471 282.640807 
L 117.73794 282.577037 
L 117.994165 282.29686 
L 118.022634 282.743143 
L 118.079573 282.277288 
L 118.364266 281.989672 
L 118.392736 281.531616 
L 118.421205 281.577512 
L 118.705898 281.874842 
L 118.762837 282.527927 
L 119.019061 282.73101 
L 119.047531 282.351891 
L 119.104469 282.971069 
L 119.360694 283.331989 
L 119.417632 284.188518 
L 119.446102 283.58902 
L 119.702326 284.041189 
L 119.787734 284.550557 
L 120.043958 284.357404 
L 120.129366 283.588225 
L 120.385591 283.447252 
L 120.470999 283.862914 
L 120.727223 283.486034 
L 120.784162 284.224122 
L 120.812631 283.672867 
L 121.068855 284.205165 
L 121.097324 284.156597 
L 121.125794 283.649287 
L 121.154263 283.843956 
L 121.410487 283.639502 
L 121.495895 282.809874 
L 121.809058 282.544249 
L 121.837528 282.132487 
L 122.122221 283.043939 
L 122.150691 283.269266 
L 122.17916 283.035237 
L 122.435384 283.42898 
L 122.492323 283.892272 
L 122.520792 283.589309 
L 122.777017 283.433602 
L 122.862425 284.663617 
L 123.118649 284.41713 
L 123.175588 285.031975 
L 123.204057 284.289807 
L 123.460281 284.592733 
L 123.545689 285.741681 
L 123.801913 285.838817 
L 123.887321 284.781228 
L 124.143546 284.59295 
L 124.172015 284.124459 
L 124.228954 284.935489 
L 124.82681 283.583675 
L 124.85528 283.762095 
L 124.883749 283.286671 
L 124.912218 283.448805 
L 125.168443 283.633471 
L 125.225381 283.03549 
L 125.253851 283.209973 
L 125.510075 283.175885 
L 125.538544 283.466426 
L 125.567014 283.045998 
L 125.595483 282.161086 
L 125.851707 282.391757 
L 125.908646 283.351452 
L 125.937115 283.217412 
L 126.193339 283.094385 
L 126.221809 282.792686 
L 126.250278 283.42165 
L 126.278747 283.509578 
L 126.534972 283.793041 
L 126.62038 284.360438 
L 126.876604 284.702363 
L 126.905073 284.319092 
L 126.962012 284.38929 
L 127.275175 284.469345 
L 127.303644 283.93174 
L 127.559869 283.787553 
L 127.645277 284.574823 
L 127.901501 283.915346 
L 127.92997 283.321697 
L 127.986909 283.985905 
L 128.243133 284.410486 
L 128.328541 285.162657 
L 128.641704 285.042736 
L 128.670173 285.446879 
L 128.926398 285.71236 
L 129.011806 285.182049 
L 129.296499 285.467606 
L 129.353438 285.010779 
L 129.638132 285.222564 
L 129.69507 285.560445 
L 129.951295 285.658014 
L 130.008233 285.133047 
L 130.036703 285.402825 
L 130.292927 285.22975 
L 130.321396 285.008648 
L 130.378335 285.410986 
L 130.634559 285.193676 
L 130.719967 285.768583 
L 130.976191 285.801841 
L 131.004661 285.689141 
L 131.03313 286.071438 
L 131.061599 285.827768 
L 131.317824 285.783461 
L 131.403232 286.467456 
L 131.687925 286.200675 
L 131.744864 286.678664 
L 132.001088 286.482658 
L 132.029558 286.529421 
L 132.086496 286.940028 
L 132.342721 286.758214 
L 132.399659 285.976071 
L 132.428129 286.109498 
L 132.684353 286.304275 
L 132.769761 286.868602 
L 133.054454 287.530571 
L 133.111393 287.013656 
L 133.367617 286.442504 
L 133.453025 287.219989 
L 133.766188 286.612402 
L 133.794658 286.470381 
L 134.050882 286.331249 
L 134.079351 285.872255 
L 134.13629 286.021787 
L 134.392514 286.098304 
L 134.420984 285.995173 
L 134.477922 286.511366 
L 134.734147 286.069885 
L 134.819555 284.230044 
L 135.104248 284.672139 
L 135.132718 284.494803 
L 135.161187 284.123159 
L 135.417411 283.590934 
L 135.44588 284.291793 
L 135.47435 283.332494 
L 135.502819 283.815574 
L 135.759043 284.300784 
L 135.844451 284.119512 
L 136.100676 283.650985 
L 136.157614 283.756317 
L 136.186084 283.977166 
L 136.442308 283.829873 
L 136.527716 284.498847 
L 136.81241 285.218953 
L 136.869348 285.496061 
L 137.154042 285.86785 
L 137.210981 286.270187 
L 137.467205 286.120078 
L 137.495674 286.268165 
L 137.524144 286.004995 
L 137.552613 286.020523 
L 137.808837 285.845823 
L 137.894245 285.313561 
L 138.150469 285.281134 
L 138.178939 285.547121 
L 138.235878 285.523288 
L 138.520571 285.924073 
L 138.54904 285.376068 
L 138.57751 285.817801 
L 138.862203 285.862361 
L 138.890673 285.550154 
L 138.919142 285.872399 
L 139.203836 285.663178 
L 139.260774 286.492625 
L 139.573937 286.84282 
L 139.602407 286.575281 
L 139.858631 286.975343 
L 139.91557 286.423871 
L 139.944039 286.647465 
L 140.200263 286.289145 
L 140.285671 286.887596 
L 140.541895 287.096709 
L 140.570365 287.004267 
L 140.627304 286.071149 
L 140.883528 286.178107 
L 140.911997 285.721893 
L 140.968936 285.904971 
L 141.22516 285.903599 
L 141.282099 286.081368 
L 141.310568 285.496567 
L 141.566792 284.983768 
L 141.6522 286.111412 
L 141.908425 285.878791 
L 141.936894 286.102926 
L 141.965363 285.652562 
L 141.993833 285.369423 
L 142.250057 285.372312 
L 142.278526 284.938595 
L 142.306996 285.407158 
L 142.335465 284.950728 
L 142.591689 284.865761 
L 142.620159 284.631985 
L 142.677097 284.922237 
L 142.933321 284.527194 
L 142.961791 285.253402 
L 143.01873 285.223539 
L 143.360362 285.748651 
L 143.616586 285.752839 
L 143.673525 285.579872 
L 143.701994 285.730993 
L 143.958218 285.740129 
L 144.015157 285.403764 
L 144.043626 285.458832 
L 144.299851 285.935267 
L 144.356789 285.220325 
L 144.385259 285.550407 
L 144.641483 285.695713 
L 144.669952 285.640248 
L 144.726891 284.904435 
L 144.983115 285.103618 
L 145.011585 285.44789 
L 145.068523 285.270374 
L 145.324747 284.902738 
L 145.381686 285.756053 
L 145.410156 285.528235 
L 145.694849 285.698602 
L 145.751788 286.208584 
L 146.008012 285.900313 
L 146.064951 286.657792 
L 146.09342 286.398125 
L 146.349644 286.78768 
L 146.435052 285.916562 
L 147.032909 286.415783 
L 147.089848 287.031314 
L 147.118317 286.977546 
L 147.374541 286.838378 
L 147.459949 287.379667 
L 147.716173 287.12975 
L 147.773112 287.592066 
L 147.801582 287.345254 
L 148.057806 287.229666 
L 148.086275 287.476695 
L 148.114744 287.392233 
L 148.143214 286.617782 
L 148.399438 286.766989 
L 148.456377 287.249707 
L 148.484846 287.228366 
L 148.76954 287.757919 
L 148.826478 287.575744 
L 149.111172 287.75568 
L 149.139641 287.301453 
L 149.168111 287.813673 
L 149.424335 287.633304 
L 149.452804 287.251549 
L 149.481274 287.75568 
L 149.509743 287.300803 
L 149.794437 287.633845 
L 149.851375 287.136791 
L 150.164538 287.370387 
L 150.193008 287.041352 
L 150.449232 286.037928 
L 150.50617 286.974766 
L 150.53464 286.358765 
L 150.819333 286.339699 
L 150.847803 286.45442 
L 150.876272 286.108017 
L 151.132496 285.598469 
L 151.217904 286.861525 
L 151.502598 286.567517 
L 151.559537 285.848603 
L 151.815761 285.474251 
L 151.84423 285.072419 
L 151.901169 285.44121 
L 152.157393 285.348696 
L 152.242801 286.132825 
L 152.499025 286.530288 
L 152.584434 286.971985 
L 152.840658 287.14571 
L 152.869127 287.033047 
L 152.897596 286.743228 
L 152.926066 286.94985 
L 153.18229 287.015967 
L 153.267698 286.069705 
L 153.523922 286.519491 
L 153.552392 286.336666 
L 153.580861 286.561776 
L 153.60933 286.716904 
L 153.894024 286.9492 
L 153.950963 287.587949 
L 154.235656 286.97036 
L 154.264126 287.226416 
L 154.292595 286.696755 
L 154.548819 286.873333 
L 154.577289 286.771755 
L 154.605758 286.731745 
L 154.634227 287.014414 
L 154.890451 287.223383 
L 154.94739 287.841694 
L 154.97586 287.512046 
L 155.232084 287.490561 
L 155.289022 287.166654 
L 155.317492 287.234433 
L 155.602185 285.822062 
L 155.659124 285.911687 
L 155.915348 285.912445 
L 156.000756 284.142875 
L 156.598613 284.731107 
L 156.655552 285.686902 
L 156.684021 285.444857 
L 156.940245 285.402753 
L 157.025653 286.478939 
L 157.338816 285.625588 
L 157.367286 285.848675 
L 157.62351 285.79321 
L 157.680448 286.479878 
L 157.708918 286.295573 
L 157.965142 286.586836 
L 158.022081 287.151127 
L 158.05055 286.881999 
L 158.306774 286.788546 
L 158.363713 287.30593 
L 158.392182 286.851992 
L 158.648407 287.139897 
L 158.705345 286.766483 
L 158.733815 287.198756 
L 159.018508 287.163007 
L 159.075447 287.408049 
L 159.331671 287.314308 
L 159.417079 286.884346 
L 159.673303 287.101114 
L 159.730242 286.774102 
L 159.758712 286.137736 
L 160.014936 286.217178 
L 160.100344 287.138922 
L 160.385037 286.344213 
L 160.413507 286.441276 
L 160.441976 285.422686 
L 160.72667 285.369423 
L 160.755139 285.466451 
L 160.783608 285.298756 
L 161.039833 285.061802 
L 161.096771 285.791116 
L 161.125241 285.582003 
L 161.409934 285.993079 
L 161.438404 286.272715 
L 161.466873 286.096354 
L 161.751567 286.622224 
L 161.808505 286.401303 
L 162.06473 286.424341 
L 162.121668 286.347463 
L 162.150138 286.586511 
L 162.463301 287.118519 
L 162.49177 286.78443 
L 162.747994 287.116822 
L 162.776463 286.700799 
L 162.833402 286.990726 
L 163.118096 287.570147 
L 163.175034 286.626593 
L 163.516667 287.373384 
L 163.772891 287.214283 
L 163.82983 287.175934 
L 163.858299 287.562528 
L 164.114523 287.022503 
L 164.142993 286.598138 
L 164.199931 286.797754 
L 164.484625 286.638004 
L 164.541564 287.151885 
L 164.826257 286.259426 
L 164.854727 286.583622 
L 164.883196 286.339049 
L 165.13942 286.633165 
L 165.224828 285.533796 
L 165.537991 286.086171 
L 165.56646 285.685747 
L 165.822685 285.025114 
L 165.908093 286.140516 
L 166.164317 285.98889 
L 166.249725 286.672958 
L 166.534419 287.139247 
L 166.562888 287.409638 
L 166.591357 287.26184 
L 166.847582 287.576683 
L 166.90452 288.441734 
L 166.93299 288.380672 
L 167.189214 288.06146 
L 167.217683 288.352759 
L 167.246153 287.773049 
L 167.274622 287.478464 
L 318.190685 291.556005 
L 318.247623 291.832752 
L 318.276093 291.758402 
L 318.532317 291.578357 
L 318.617725 292.015216 
L 318.873949 292.194249 
L 318.902418 291.515056 
L 318.959357 292.025688 
L 319.27252 291.464539 
L 319.300989 291.203066 
L 319.557214 291.177283 
L 319.642622 290.438473 
L 319.898846 290.664774 
L 319.927315 290.984059 
L 319.984254 290.778376 
L 320.325886 291.003342 
L 320.582111 290.975429 
L 320.667519 291.578285 
L 320.923743 291.71005 
L 320.952212 291.55308 
L 321.009151 291.831561 
L 321.265375 292.214435 
L 321.350783 291.748435 
L 321.663946 291.900711 
L 321.692415 292.035618 
L 321.94864 291.364911 
L 321.977109 291.512132 
L 322.005578 291.636711 
L 322.034048 291.297313 
L 322.290272 291.232604 
L 322.318741 291.598362 
L 322.37568 291.541381 
L 322.631904 291.679429 
L 322.717312 291.94314 
L 323.002006 291.87482 
L 323.058945 292.329517 
L 323.343638 292.403326 
L 323.372108 292.0744 
L 323.400577 292.320671 
L 323.656801 292.216313 
L 323.742209 292.603556 
L 324.026903 292.516676 
L 324.083841 292.701595 
L 324.368535 291.79852 
L 324.397004 291.945957 
L 324.425474 290.950693 
L 324.681698 290.921011 
L 324.710167 291.062381 
L 324.738637 290.879195 
L 324.767106 291.040535 
L 325.02333 290.607107 
L 325.080269 290.72515 
L 325.108738 290.805748 
L 325.393432 291.073684 
L 325.421901 291.388996 
L 325.450371 291.066534 
L 325.706595 290.903642 
L 325.763534 291.143412 
L 325.792003 290.729808 
L 326.105166 290.786357 
L 326.133635 290.457828 
L 326.389859 290.309813 
L 326.446798 290.693409 
L 326.475268 290.424498 
L 327.073124 291.078631 
L 327.101593 290.897214 
L 327.130063 291.324648 
L 327.158532 291.358086 
L 327.443226 291.524553 
L 327.471695 291.690695 
L 327.500164 291.636278 
L 327.756389 291.53015 
L 327.841797 291.96152 
L 328.12649 291.77299 
L 328.183429 292.057501 
L 328.525061 292.450558 
L 328.781285 292.241517 
L 328.866694 292.687115 
L 329.122918 292.954184 
L 329.208326 292.324751 
L 329.46455 292.272608 
L 329.521489 291.837519 
L 329.549958 292.316626 
L 329.806182 292.081189 
L 329.834652 292.315976 
L 329.89159 292.104624 
L 330.147815 292.263147 
L 330.176284 292.150665 
L 330.204753 291.874315 
L 330.233223 291.925085 
L 330.517916 292.170381 
L 330.574855 292.502484 
L 330.831079 292.552316 
L 330.859549 292.7073 
L 330.888018 292.61977 
L 330.916487 292.263725 
L 331.172711 292.101266 
L 331.25812 291.542067 
L 331.514344 291.581065 
L 331.599752 292.008716 
L 331.855976 291.744066 
L 331.912915 292.137846 
L 331.941384 291.944332 
L 332.197608 292.157201 
L 332.283016 291.938952 
L 332.56771 291.79592 
L 332.624649 290.928413 
L 332.880873 290.874501 
L 332.937812 291.501587 
L 332.966281 291.182592 
L 333.250975 291.560086 
L 333.307913 290.938957 
L 333.564137 291.027752 
L 333.592607 291.33707 
L 333.649546 291.052848 
L 333.90577 291.153776 
L 333.991178 290.275183 
L 334.645973 290.747358 
L 334.674442 291.136443 
L 334.930667 291.244593 
L 335.016075 290.406624 
L 335.329238 291.264381 
L 335.357707 290.916244 
L 335.613931 290.974417 
L 335.699339 290.445731 
L 335.984033 290.597429 
L 336.012502 290.95156 
L 336.040972 290.168876 
L 336.297196 290.231165 
L 336.325665 290.443889 
L 336.382604 290.088784 
L 336.638828 290.360909 
L 336.724236 291.198841 
L 337.037399 291.706801 
L 337.065868 291.58706 
L 337.322093 291.374589 
L 337.407501 290.989981 
L 337.692194 291.158578 
L 337.749133 291.300166 
L 338.005357 291.190572 
L 338.062296 291.460422 
L 338.090765 291.440886 
L 338.346989 290.914114 
L 338.403928 291.400191 
L 338.432398 291.016775 
L 338.688622 291.168689 
L 338.74556 290.954485 
L 338.77403 291.168075 
L 339.030254 291.22141 
L 339.115662 290.818314 
L 339.371886 291.132038 
L 339.457294 291.570521 
L 339.713519 291.667585 
L 339.741988 291.943032 
L 339.798927 291.821016 
L 340.055151 291.990914 
L 340.08362 291.843369 
L 340.140559 292.005286 
L 340.453722 291.66076 
L 340.482191 291.728647 
L 340.795354 292.076134 
L 340.823824 292.298246 
L 341.080048 292.437775 
L 341.136986 291.760821 
L 341.165456 292.00738 
L 341.42168 291.813758 
L 341.507088 291.374877 
L 341.791782 291.338154 
L 341.84872 291.90898 
L 342.133414 292.182622 
L 342.161883 292.28373 
L 342.190353 292.250292 
L 342.446577 292.339628 
L 342.531985 291.421387 
L 342.788209 290.904184 
L 342.873617 291.352598 
L 343.129841 291.21816 
L 343.21525 291.783606 
L 343.471474 291.35675 
L 343.499943 291.540189 
L 343.556882 291.208085 
L 343.841575 291.39463 
L 343.870045 291.745691 
L 343.898514 291.58056 
L 344.154738 291.38896 
L 344.183208 291.561855 
L 344.240146 291.54658 
L 344.52484 291.605801 
L 344.553309 291.395352 
L 344.581779 291.793826 
L 344.838003 291.601143 
L 344.894942 292.042335 
L 344.923411 291.971415 
L 345.179635 291.812206 
L 345.208105 291.903925 
L 345.236574 292.108452 
L 345.265043 291.916022 
L 345.521267 291.988025 
L 345.578206 292.168395 
L 345.606676 291.775626 
L 345.8629 291.757824 
L 345.948308 292.22404 
L 346.204532 292.229168 
L 346.261471 292.394985 
L 346.28994 292.380938 
L 346.887797 293.005858 
L 346.973205 292.011858 
L 347.229429 292.053204 
L 347.286368 291.578032 
L 347.314837 292.053493 
L 347.571061 291.978564 
L 347.599531 292.222704 
L 347.656469 291.96412 
L 347.969632 292.261631 
L 347.998102 291.969754 
L 348.282795 291.915191 
L 348.311264 292.195694 
L 348.339734 291.725036 
L 348.595958 291.554705 
L 348.681366 292.256467 
L 348.96606 292.310018 
L 349.022998 292.594998 
L 349.649324 291.720378 
L 349.706263 292.143695 
L 349.962487 292.402171 
L 349.990957 291.879984 
L 350.047895 292.323523 
L 350.30412 292.473307 
L 350.332589 292.357394 
L 350.361058 292.366783 
L 350.389528 292.743121 
L 350.987384 292.663932 
L 351.015853 292.929052 
L 351.072792 292.628869 
L 351.385955 292.536933 
L 351.414424 292.325545 
L 351.670649 292.63898 
L 351.727587 292.563944 
L 351.756057 292.480168 
L 352.012281 292.309693 
L 352.04075 292.37888 
L 352.06922 291.89385 
L 352.097689 292.000266 
L 352.353913 291.961954 
L 352.410852 292.357828 
L 352.439321 292.226821 
L 352.752484 292.20891 
L 352.780954 292.022149 
L 353.037178 291.762446 
L 353.065647 291.286877 
L 353.122586 291.341801 
L 353.407279 291.6357 
L 353.435749 291.96329 
L 353.464218 291.789529 
L 353.720442 291.543764 
L 353.748912 291.322121 
L 353.80585 291.702792 
L 354.062075 291.717272 
L 354.119013 292.231334 
L 354.147483 292.072956 
L 354.403707 292.176519 
L 354.460646 291.664624 
L 354.489115 291.756596 
L 354.745339 291.932632 
L 354.773809 291.605548 
L 354.830747 292.01045 
L 355.086972 292.129865 
L 355.115441 292.272247 
L 355.14391 292.234079 
L 355.17238 291.844344 
L 355.428604 291.44085 
L 355.457073 291.553044 
L 355.485543 291.788192 
L 355.514012 291.766563 
L 355.798705 291.743849 
L 355.855644 292.251375 
L 356.111868 292.15507 
L 356.197276 291.873773 
L 356.453501 291.822064 
L 356.48197 292.010594 
L 356.538909 291.659749 
L 356.852072 291.682751 
L 356.880541 291.320424 
L 357.136765 291.60934 
L 357.222173 291.173456 
L 357.478398 291.343714 
L 357.506867 291.067329 
L 357.563806 291.441536 
L 357.82003 291.347542 
L 357.876969 291.670077 
L 357.905438 291.603706 
L 358.218601 291.783787 
L 358.24707 291.966179 
L 358.560233 291.737638 
L 358.588702 292.057537 
L 358.844927 292.122715 
L 358.930335 291.549361 
L 359.186559 291.66076 
L 359.215028 291.533148 
L 359.271967 291.712506 
L 359.556661 291.828491 
L 359.58513 291.612228 
L 359.613599 291.939963 
L 359.869824 291.825819 
L 359.898293 292.259717 
L 359.955232 292.067359 
L 360.268395 292.313412 
L 360.296864 292.451136 
L 360.581557 292.572068 
L 360.610027 292.70842 
L 360.638496 292.645263 
L 360.89472 292.687873 
L 360.951659 292.240795 
L 360.980128 292.45695 
L 361.264822 292.153337 
L 361.293291 292.012941 
L 361.321761 292.085667 
L 361.577985 291.956429 
L 361.606454 292.182875 
L 361.634924 291.810075 
L 361.663393 291.914216 
L 361.919617 291.751071 
L 361.976556 292.110294 
L 362.005025 291.875181 
L 362.26125 291.608076 
L 362.318188 292.040565 
L 362.346658 292.025688 
L 362.659821 292.285247 
L 362.68829 292.67054 
L 363.286146 291.737783 
L 363.314616 291.864782 
L 363.343085 291.614612 
L 363.371554 291.711206 
L 363.627779 291.546472 
L 363.684717 291.87139 
L 363.713187 291.66708 
L 363.969411 291.843405 
L 363.99788 291.515526 
L 364.054819 291.788192 
L 364.311043 292.037821 
L 364.396451 291.527514 
L 364.681145 291.883451 
L 364.738084 291.428609 
L 365.051247 291.142979 
L 365.079716 291.039271 
L 365.364409 290.719481 
L 365.392879 290.536331 
L 365.421348 290.770324 
L 365.677572 291.042196 
L 365.706042 290.732697 
L 365.76298 291.052126 
L 366.019205 291.199816 
L 366.104613 291.431028 
L 366.360837 291.526034 
L 366.417776 291.869512 
L 366.446245 291.847955 
L 366.730939 291.932055 
L 366.787877 292.511801 
L 367.044102 292.374547 
L 367.12951 291.688168 
L 367.385734 291.047432 
L 367.414203 291.071806 
L 367.471142 291.337612 
L 367.812774 291.315513 
L 368.097468 291.230618 
L 368.154406 291.547592 
L 368.410631 291.413226 
L 368.4391 291.502418 
L 368.467569 291.560988 
L 368.496039 291.517873 
L 368.752263 291.502562 
L 368.837671 291.850229 
L 369.150834 292.252278 
L 369.179303 291.998678 
L 369.435528 291.687012 
L 369.463997 291.819933 
L 369.520936 292.044321 
L 369.77716 292.270839 
L 369.805629 292.216024 
L 369.862568 292.557985 
L 370.118792 292.410729 
L 370.147261 292.210643 
L 370.2042 292.400871 
L 370.460424 292.643963 
L 370.517363 293.187708 
L 370.545832 293.107796 
L 370.802057 292.957218 
L 370.887465 292.453447 
L 371.143689 292.536789 
L 371.229097 292.322584 
L 371.485321 292.089964 
L 371.54226 292.379819 
L 371.570729 292.187461 
L 372.168586 291.535386 
L 372.197055 291.633281 
L 372.253994 291.976723 
L 372.510218 291.687698 
L 372.538687 291.833366 
L 372.595626 291.780212 
L 372.85185 291.948376 
L 372.908789 292.265567 
L 372.937258 292.134271 
L 373.193483 292.233609 
L 373.250421 291.735869 
L 373.278891 291.869837 
L 373.563584 291.959029 
L 373.620523 291.406979 
L 373.876747 291.629056 
L 373.962155 292.009619 
L 374.246849 292.19656 
L 374.303788 292.54188 
L 374.560012 292.319226 
L 374.588481 292.512487 
L 374.616951 292.234007 
L 374.64542 291.961412 
L 374.901644 291.757282 
L 374.987052 291.518379 
L 375.271746 290.951307 
L 375.300215 291.006664 
L 375.328685 291.086178 
L 375.584909 291.26402 
L 375.670317 291.555861 
L 375.926541 291.205919 
L 375.95501 290.88407 
L 376.011949 291.026416 
L 376.268173 290.462269 
L 376.353581 291.245423 
L 376.638275 290.65553 
L 376.666744 290.869735 
L 376.695214 291.036563 
L 377.29307 291.528417 
L 377.32154 292.029696 
L 377.378478 291.766779 
L 377.634702 291.738902 
L 377.720111 292.173631 
L 377.976335 292.354 
L 378.033273 291.924472 
L 378.061743 292.08693 
L 378.317967 291.99485 
L 378.374906 291.279078 
L 378.403375 291.610387 
L 378.659599 291.512456 
L 378.745007 292.347247 
L 379.001232 292.34685 
L 379.05817 292.718025 
L 379.08664 292.640497 
L 379.342864 292.475835 
L 379.399803 292.740846 
L 379.428272 292.652594 
L 379.712966 292.022257 
L 379.741435 292.224762 
L 379.769904 292.41109 
L 380.054598 292.479843 
L 380.111537 292.029732 
L 380.367761 291.616092 
L 380.424699 291.714167 
L 380.453169 291.798556 
L 380.709393 291.839649 
L 380.766332 292.399607 
L 380.794801 291.999617 
L 381.079495 292.275677 
L 381.107964 292.481757 
L 381.136433 292.227868 
L 381.392658 291.866154 
L 381.449596 291.911328 
L 381.478066 291.992322 
L 382.104392 291.355739 
L 382.132861 291.574385 
L 382.16133 291.303741 
L 382.446024 291.450564 
L 382.502963 291.100694 
L 382.759187 291.503826 
L 382.787656 291.885256 
L 382.816125 291.270158 
L 382.844595 290.988139 
L 383.100819 291.352561 
L 383.186227 292.048871 
L 383.470921 292.472188 
L 383.527859 292.3423 
L 383.784084 292.38538 
L 383.841022 292.981411 
L 383.869492 292.652919 
L 384.154185 292.850838 
L 384.211124 292.479843 
L 384.467348 292.438245 
L 384.495818 292.269503 
L 384.552756 292.366458 
L 384.894389 292.585212 
L 385.179082 292.378916 
L 385.207551 292.31529 
L 385.236021 292.464063 
L 385.492245 292.260656 
L 385.577653 291.261311 
L 385.833877 291.322301 
L 385.862347 290.872335 
L 385.890816 291.372927 
L 385.919285 291.338587 
L 386.203979 290.890462 
L 386.260918 291.397049 
L 386.517142 291.243726 
L 386.545611 291.782632 
L 386.60255 291.622664 
L 386.858774 291.605476 
L 386.915713 291.954371 
L 386.944182 291.943429 
L 387.200406 292.082056 
L 387.285815 292.799597 
L 387.542039 292.737235 
L 387.570508 293.000261 
L 387.627447 292.936707 
L 387.883671 292.729869 
L 387.969079 293.106713 
L 388.225303 292.94736 
L 388.253773 293.086816 
L 388.282242 292.746191 
L 388.310711 292.391916 
L 388.595405 292.478255 
L 388.623874 292.157995 
L 388.652344 292.434634 
L 388.908568 292.107802 
L 388.937037 291.76826 
L 388.993976 292.242095 
L 389.2502 292.065842 
L 389.27867 291.73298 
L 389.335608 291.869296 
L 389.620302 292.413401 
L 389.648771 292.231912 
L 389.677241 292.035546 
L 389.961934 292.259861 
L 390.018873 292.680615 
L 390.275097 292.360464 
L 390.303566 292.127338 
L 390.360505 292.472549 
L 390.616729 292.374041 
L 390.645199 292.511765 
L 390.673668 292.377869 
L 390.702137 291.687626 
L 390.958362 291.717922 
L 390.986831 291.449336 
L 391.04377 291.486855 
L 391.299994 291.376647 
L 391.356933 291.739697 
L 391.385402 291.623386 
L 391.641626 291.496965 
L 391.670096 291.905875 
L 391.727034 291.635844 
L 392.068667 291.90815 
L 392.35336 291.972462 
L 392.381829 291.678671 
L 392.410299 292.13521 
L 392.694992 292.159728 
L 392.723462 291.811339 
L 392.751931 291.979214 
L 393.065094 291.766671 
L 393.093563 291.029088 
L 393.378257 290.935527 
L 393.406726 290.705831 
L 393.435196 290.776607 
L 393.719889 291.113658 
L 393.748359 291.06314 
L 393.776828 291.228704 
L 394.061522 291.576877 
L 394.11846 292.200388 
L 394.374684 292.061617 
L 394.460093 292.324643 
L 394.716317 292.561777 
L 394.744786 292.321176 
L 394.773255 292.628869 
L 394.801725 292.57799 
L 395.057949 292.848635 
L 395.086418 292.769482 
L 395.399581 292.561488 
L 395.484989 292.79772 
L 395.741214 292.627281 
L 395.769683 292.427087 
L 395.798152 292.795048 
L 395.826622 292.572285 
L 396.082846 292.650499 
L 396.168254 292.340964 
L 396.424478 292.653749 
L 396.452948 292.525811 
L 396.509886 292.565496 
L 397.107743 292.870842 
L 397.193151 293.284771 
L 397.449375 293.238659 
L 397.534783 292.66256 
L 397.819477 292.490785 
L 397.876415 291.953757 
L 398.189578 292.059198 
L 398.218048 291.763132 
L 398.531211 292.225376 
L 398.55968 292.036882 
L 398.844374 292.036774 
L 398.872843 291.940071 
L 398.901312 292.010088 
L 399.157537 291.398602 
L 399.186006 291.478585 
L 399.242945 291.986797 
L 399.499169 291.941299 
L 399.527638 292.088194 
L 399.584577 292.01388 
L 399.840801 291.988422 
L 399.89774 292.108488 
L 399.926209 291.977301 
L 400.210903 292.103397 
L 400.239372 291.837374 
L 400.267841 292.088483 
L 400.524066 292.106358 
L 400.609474 292.785262 
L 400.865698 292.974189 
L 400.951106 292.142215 
L 401.20733 292.156912 
L 401.292738 291.513756 
L 401.548963 291.741177 
L 401.577432 291.627106 
L 401.605901 291.627503 
L 401.634371 291.503032 
L 401.890595 291.108963 
L 401.919064 291.465983 
L 401.976003 291.459916 
L 402.232227 291.464033 
L 402.317635 292.015685 
L 402.602329 292.242998 
L 402.630798 292.44312 
L 402.659267 292.357503 
L 402.915492 292.101519 
L 402.97243 292.405385 
L 403.0009 291.94639 
L 403.285593 292.160198 
L 403.314063 292.030346 
L 403.342532 292.260006 
L 403.598756 291.862651 
L 403.655695 292.243142 
L 403.684164 292.099533 
L 403.940389 292.154131 
L 403.997327 291.486782 
L 404.025797 291.795487 
L 404.31049 292.083536 
L 404.367429 291.621689 
L 404.623653 291.932344 
L 404.652122 292.160378 
L 404.680592 291.6331 
L 404.709061 291.786423 
L 404.965285 292.111377 
L 405.022224 292.427412 
L 405.050693 292.416904 
L 405.306918 292.616231 
L 405.335387 292.514798 
L 405.392326 292.005683 
L 405.677019 292.177386 
L 405.705489 292.512559 
L 405.733958 292.469769 
L 405.990182 292.578749 
L 406.07559 292.80487 
L 406.331815 292.480638 
L 406.388753 293.139573 
L 406.417223 292.950934 
L 406.673447 293.247145 
L 406.701916 293.184566 
L 406.758855 293.550541 
L 407.043548 293.484496 
L 407.100487 293.017305 
L 407.356711 293.123685 
L 407.41365 292.606481 
L 407.442119 292.803678 
L 407.726813 292.483093 
L 407.755282 291.878829 
L 407.783752 291.93108 
L 408.039976 292.19768 
L 408.125384 292.037026 
L 408.438547 292.227759 
L 408.467016 292.378049 
L 408.75171 292.329554 
L 408.780179 292.486379 
L 408.808649 292.279036 
L 409.064873 292.045476 
L 409.121812 292.267011 
L 409.150281 292.10856 
L 409.406505 291.846438 
L 409.491913 292.690292 
L 409.748137 292.606192 
L 409.776607 292.803425 
L 409.805076 292.458863 
L 409.833545 292.763018 
L 410.08977 292.712933 
L 410.146708 292.440772 
L 410.175178 292.69264 
L 410.431402 292.794975 
L 410.51681 292.560874 
L 410.801504 292.806494 
L 410.829973 292.939271 
L 410.858442 292.668807 
L 411.200075 292.781073 
L 411.456299 292.70842 
L 411.484768 292.396899 
L 411.541707 292.690834 
L 411.8264 292.874092 
L 411.85487 292.97455 
L 411.883339 292.483707 
L 412.139563 292.488004 
L 412.224971 292.934757 
L 412.481196 293.185288 
L 412.566604 292.705639 
L 412.908236 292.617711 
L 413.16446 292.389352 
L 413.221399 291.733558 
L 413.249868 292.046957 
L 413.506093 292.22256 
L 413.563031 291.816358 
L 413.591501 292.00348 
L 413.876194 292.303879 
L 413.904664 292.661368 
L 413.933133 292.595287 
L 414.189357 292.962309 
L 414.246296 293.28228 
L 414.274765 293.070242 
L 414.559459 293.266066 
L 414.587928 293.149973 
L 414.616397 293.291993 
L 414.872622 293.107327 
L 414.901091 293.258014 
L 414.92956 293.246459 
L 414.95803 292.912694 
L 415.214254 293.231473 
L 415.242723 293.026296 
L 415.299662 293.146867 
L 415.584356 293.058434 
L 415.612825 293.156473 
L 415.641294 293.142101 
L 415.982927 292.521984 
L 416.239151 292.609659 
L 416.324559 292.468938 
L 416.580783 292.508551 
L 416.637722 292.698309 
L 416.666191 292.596226 
L 416.922415 292.615689 
L 417.007823 293.138273 
L 417.264048 293.051031 
L 417.349456 292.463197 
L 417.60568 292.08415 
L 417.634149 292.536572 
L 417.691088 291.945776 
L 418.004251 292.274378 
L 418.03272 292.012977 
L 418.288945 291.841274 
L 418.317414 292.061329 
L 418.345883 291.821739 
L 418.374353 292.053854 
L 418.630577 292.30944 
L 418.659046 292.184283 
L 418.687516 292.205191 
L 418.715985 291.942852 
L 419.000678 292.101302 
L 419.029148 292.328037 
L 419.057617 291.979106 
L 419.313841 292.065373 
L 419.399249 292.649922 
L 419.655474 292.823611 
L 419.683943 293.129607 
L 419.712412 292.746732 
L 419.740882 292.834046 
L 419.997106 293.03814 
L 420.054045 292.720264 
L 420.082514 292.792556 
L 420.338738 292.502412 
L 420.367208 292.803967 
L 420.424146 292.458177 
L 420.70884 292.613017 
L 420.765779 292.319118 
L 421.022003 292.277591 
L 421.050472 292.447669 
L 421.078942 292.433659 
L 421.107411 291.956501 
L 421.363635 292.14124 
L 421.392105 291.819247 
L 421.420574 292.291349 
L 421.449043 291.885545 
L 421.733737 292.419251 
L 421.790676 292.273114 
L 422.0469 292.028505 
L 422.075369 291.812061 
L 422.132308 292.224618 
L 422.388532 292.110619 
L 422.417001 292.245417 
L 422.445471 291.944693 
L 422.47394 291.669679 
L 422.815572 292.229276 
L 423.071797 292.428098 
L 423.128735 292.716039 
L 423.157205 292.652666 
L 423.441898 292.554555 
L 423.470368 292.27528 
L 423.498837 292.296838 
L 423.755061 292.522056 
L 423.840469 292.086208 
L 424.096693 291.75313 
L 424.125163 291.497976 
L 424.182102 291.857307 
L 424.438326 291.812675 
L 424.523734 292.403362 
L 424.779958 292.393107 
L 424.808427 292.603701 
L 424.836897 292.200966 
L 424.865366 291.983042 
L 425.12159 291.984234 
L 425.206998 292.409718 
L 425.463223 292.37043 
L 425.520161 292.723478 
L 425.548631 292.64288 
L 425.804855 292.882795 
L 425.833324 292.818808 
L 425.890263 292.503929 
L 426.174957 292.399426 
L 426.203426 292.791328 
L 426.231895 292.740919 
L 426.488119 292.678232 
L 426.516589 292.880628 
L 426.573528 292.546177 
L 426.91516 292.371658 
L 427.171384 292.262353 
L 427.199853 292.400401 
L 427.228323 292.155503 
L 427.256792 292.109535 
L 427.513016 292.026518 
L 427.569955 292.343239 
L 427.598424 292.30016 
L 427.883118 292.401882 
L 427.911587 292.708889 
L 427.940057 292.382599 
L 428.196281 292.488438 
L 428.281689 292.875067 
L 428.537913 293.004377 
L 428.594852 292.410151 
L 428.623321 292.663679 
L 428.879545 292.790209 
L 428.879545 292.790209 
" style="fill:none;stroke:#1f77b4;stroke-linecap:square;stroke-width:1.5;"/>
   </g>
   <g id="patch_3">
    <path d="M 38.27 303.64 
L 38.27 14.76 
" style="fill:none;stroke:#000000;stroke-linecap:square;stroke-linejoin:miter;stroke-width:0.8;"/>
   </g>
   <g id="patch_4">
    <path d="M 447.48 303.64 
L 447.48 14.76 
" style="fill:none;stroke:#000000;stroke-linecap:square;stroke-linejoin:miter;stroke-width:0.8;"/>
   </g>
   <g id="patch_5">
    <path d="M 38.27 303.64 
L 447.48 303.64 
" style="fill:none;stroke:#000000;stroke-linecap:square;stroke-linejoin:miter;stroke-width:0.8;"/>
   </g>
   <g id="patch_6">
    <path d="M 38.27 14.76 
L 447.48 14.76 
" style="fill:none;stroke:#000000;stroke-linecap:square;stroke-linejoin:miter;stroke-width:0.8;"/>
   </g>
  </g>
 </g>
 <defs>
  <clipPath id="p9744d4a9ca">
   <rect height="288.88" width="409.21" x="38.27" y="14.76"/>
  </clipPath>
 </defs>
</svg>
